<svg xmlns="http://www.w3.org/2000/svg" viewBox="0 0 24 24" fit="" height="100%" width="100%" preserveAspectRatio="xMidYMid meet" focusable="false"><path d="M15.2 14c-.8.7-1.7 1.2-2.7 1.6-.9.4-1.9.6-2.9.5-.9 0-1.8-.2-2.6-.6-.7-.4-1.3-.9-1.7-1.6-.4-.7-.6-1.4-.6-2.2 0-1 .3-2 1-2.7.7-.7 1.6-1.2 2.8-1.5.2-.1.9-.2 1.8-.4 1-.2 1.8-.4 2.5-.5.7-.2 1.4-.4 2.3-.6 0-1-.3-1.8-.6-2.2s-1.3-.6-2.5-.6c-1 0-1.7.1-2.2.4-.5.3-1 .7-1.3 1.2-.3.6-.5.9-.7 1.1-.1.2-.5.2-.9.2-.4.1-.8-.1-1.2-.4-.3-.2-.4-.6-.4-1 0-.7.3-1.4.7-2 .5-.7 1.2-1.2 2.2-1.6S10.5.5 12 .5c1.7 0 3 .2 4 .6.9.3 1.6 1 2.1 1.9.4.9.6 2 .6 3.5v4.4c0 .8.1 1.5.4 2.3.2.8.4 1.3.4 1.5 0 .4-.2.8-.6 1.1-.3.3-.8.5-1.3.5-.4 0-.8-.2-1.2-.6-.5-.5-.9-1.1-1.2-1.7m-.3-5.6c-.8.3-1.6.5-2.5.7-1.1.2-1.8.4-2.2.5-.4.1-.8.3-1.2.6-.4.3-.6.8-.6 1.3 0 .6.2 1.1.7 1.5.5.4 1.1.6 1.7.6.7 0 1.5-.2 2.1-.5.6-.3 1.1-.7 1.4-1.3.3-.6.5-1.5.5-2.9l.1-.5z" fill="#aeaeae"></path><circle cx="1.6" cy="22" r="1.6" fill="#ed2224"></circle><circle cx="6.8" cy="22" r="1.6" fill="#f69e1d"></circle><circle cx="12" cy="22" r="1.6" fill="#19ac5b"></circle><circle cx="17.2" cy="22" r="1.6" fill="#8150a0"></circle><circle cx="22.4" cy="22" r="1.6" fill="#347fc2"></circle>
</svg>