<svg xmlns="http://www.w3.org/2000/svg" viewBox="0 0 20 20" fit="" height="100%" width="100%" preserveAspectRatio="xMidYMid meet" focusable="false"><g data-name="Isolation Mode"><rect x="1" y="1" width="18" height="18" rx="1.43" ry="1.43" fill="#003877"></rect><path d="M10.45 9.73l.2.11a2.7 2.7 0 0 1 1.47 2 3.32 3.32 0 0 1-.54 2.66 3.43 3.43 0 0 1-1.87 1.26 5.14 5.14 0 0 1-1.48.24H4V5.36a1.24 1.24 0 0 1 1.2-1.21h3.13A3.81 3.81 0 0 1 10.7 5a2.68 2.68 0 0 1 1 1.77 3.09 3.09 0 0 1-.48 2.22 3.36 3.36 0 0 1-.68.7zm-4.16 4.21h2.12a1.33 1.33 0 0 0 1.22-.77A1.89 1.89 0 0 0 9.81 12a1.38 1.38 0 0 0-.72-1 1.7 1.7 0 0 0-.81-.19H7a.66.66 0 0 0-.73.72v2.38c.02-.02.02 0 .02.03zm0-5h1.89a1.16 1.16 0 0 0 1-.51A1.72 1.72 0 0 0 9.4 7.3a1.22 1.22 0 0 0-1.16-1.18H7.06a.69.69 0 0 0-.77.8v2z" fill="#fff"></path><path d="M14.75 16.1a1.43 1.43 0 0 1 0-2.85 1.43 1.43 0 0 1 0 2.85z" fill="#289bd2"></path></g>
</svg>