<svg xmlns="http://www.w3.org/2000/svg" viewBox="0 0 20 20" fit="" height="100%" width="100%" preserveAspectRatio="xMidYMid meet" focusable="false"><g data-name="Isolation Mode"><path d="M11.53 7.91l-.36-1-3.08-4.14.55-.14 5.3 4.58 3.12-.89a4.53 4.53 0 0 1 1.1-.11A9 9 0 0 0 1.1 11.35l7.47-2.6zM18.49 7a4.82 4.82 0 0 1-1.08.54l-3.13.89-2.09 6.7-.54.18.44-5.11-.23-1.05-2.93.85-7.74 1.81A9 9 0 1 0 18.49 7z" fill="#00355f"></path><path d="M11.86 9.15l.25 1.06-.44 5.11.54-.18 2.09-6.7 3.13-.89A4.78 4.78 0 0 0 18.49 7q-.14-.41-.33-.81a4.53 4.53 0 0 0-1.1.11l-3.12.89-5.3-4.55-.55.14 3.07 4.11.36 1-3 .84-7.42 2.62c0 .15.05.31.08.46L8.93 10z" fill="#fff"></path></g>
</svg>