<svg xmlns="http://www.w3.org/2000/svg" viewBox="0 0 20 20" fit="" height="100%" width="100%" preserveAspectRatio="xMidYMid meet" focusable="false"><g data-name="Isolation Mode"><path d="M17.92 8.08v8.73a1.05 1.05 0 0 1-1.05 1.05H3.13a1.05 1.05 0 0 1-1.05-1.05V8.08a2.2 2.2 0 0 0 3.3-1.63l.08-.62a2.38 2.38 0 0 0 0 .28 2.28 2.28 0 0 0 4.56 0 2.28 2.28 0 0 0 4.56 0 2.24 2.24 0 0 0 0-.27l.08.61a2.2 2.2 0 0 0 3.26 1.63z" fill="#518ef8"></path><path d="M17.92 9.8v1.06a2.2 2.2 0 0 1-3.3-1.63l-.08-.61a2.24 2.24 0 0 1 0 .27 2.28 2.28 0 0 1-4.56 0 2.28 2.28 0 0 1-4.56 0 2.38 2.38 0 0 1 0-.28l-.08.62a2.2 2.2 0 0 1-3.3 1.63V9.8a2.2 2.2 0 0 0 3.3-1.63l.08-.62a2.38 2.38 0 0 0 0 .28 2.28 2.28 0 0 0 4.56 0 2.28 2.28 0 0 0 4.56 0 2.24 2.24 0 0 0 0-.27l.08.61a2.2 2.2 0 0 0 3.3 1.63z" fill="#4786e2"></path><path d="M14.54 7.63a2.24 2.24 0 0 1 0 .27 2.28 2.28 0 0 1-4.54 0L8.91 5.25 10 2.13h3.87L15 5.25l-.46 2.37zm-8.41-5.5l1 3.42-1.67 2.07-.08.62a2.2 2.2 0 0 1-3.3 1.63A2.2 2.2 0 0 1 1 8v-.19l1.5-5.13a.76.76 0 0 1 .73-.55h2.9z" fill="#acd1fc"></path><path d="M17.92 9.87a2.2 2.2 0 0 1-3.3-1.63l-.08-.61-.67-5.5h2.9a.76.76 0 0 1 .73.55L19 7.81V8a2.2 2.2 0 0 1-1.08 1.87zM10 2.13V7.9a2.28 2.28 0 0 1-4.56 0 2.38 2.38 0 0 1 0-.28l.69-5.49H10z" fill="#3a5bbc"></path><path d="M14.52 16.66a2.26 2.26 0 1 1 1.6-3.86l-.48.48a1.58 1.58 0 1 0 .43 1.46h-1.55v-.68h2.26v.34a2.26 2.26 0 0 1-2.26 2.26z" fill="#fff"></path></g>
</svg>