<svg xmlns="http://www.w3.org/2000/svg" viewBox="0 0 20 20" fit="" height="100%" width="100%" preserveAspectRatio="xMidYMid meet" focusable="false"><path d="M4.6 7c1.6-.2 6-.3 4.7 6l1.4-.1c-.6-3.9.7-5.9 4.6-6.1-6.5-3.6-10.2.1-10.7.2z" fill="#fac415"></path><path fill="#fff" d="M10.6 12c.7 1.9 2.9 2.9 4.8 2.2s2.9-2.9 2.2-4.8-2.9-2.9-4.8-2.2c-1.9.8-2.9 2.9-2.2 4.8z"></path><circle fill="#fff" cx="5.9" cy="10.7" r="3.7"></circle><circle cx="5.8" cy="10.7" r=".7" fill="#ee6946"></circle><circle cx="14.1" cy="10.7" r=".7" fill="#00af87"></circle><path d="M17.6 8.2c.2-.6.5-1.2.8-1.7h-2.8C13.9 5.5 12 4.9 10 5c-2 0-4.1.5-5.8 1.6H1.5c.4.5.7 1.1.8 1.7-1.4 1.9-1.1 4.5.8 5.9s4.5 1.1 5.9-.8l.9 1.4.9-1.4c1.4 1.9 4.1 2.2 5.9.8 2-1.5 2.3-4.1.9-6zm-3.5-1.7c-2.2.1-3.9 1.8-4.1 3.9-.2-2.2-2-3.9-4.1-3.9 1.3-.5 2.7-.8 4.1-.8 1.4 0 2.8.3 4.1.8zm-8.3 7.6c-1.9 0-3.4-1.5-3.4-3.4s1.5-3.4 3.4-3.4 3.4 1.5 3.4 3.4-1.5 3.4-3.4 3.4zm9.6-.2c-1.8.6-3.7-.2-4.3-2-.6-1.8.3-3.7 2-4.3 1.8-.6 3.7.3 4.3 2 .6 1.7-.3 3.7-2 4.3z" fill="#000"></path><path d="M5.8 8.6c-1.1 0-2.1.9-2.1 2s.9 2.1 2 2.1 2.1-.9 2.1-2c.1-1.1-.8-2.1-2-2.1zm0 3.4c-.7 0-1.3-.6-1.3-1.3 0-.7.6-1.3 1.3-1.3.7 0 1.3.6 1.3 1.3.1.7-.5 1.3-1.3 1.3zm8.3-3.4c-1.1 0-2.1.9-2.1 2s.9 2.1 2 2.1 2.1-.9 2.1-2c.1-1.1-.8-2.1-2-2.1zm0 3.4c-.7 0-1.3-.6-1.3-1.3 0-.7.6-1.3 1.3-1.3.7 0 1.3.6 1.3 1.3.1.7-.5 1.3-1.3 1.3z" fill="#000"></path>
</svg>