<?xml version="1.0" encoding="utf-8"?>
<!-- Generator: Adobe Illustrator 19.2.1, SVG Export Plug-In . SVG Version: 6.00 Build 0)  -->
<svg width="129px" height="40px" viewBox="0 0 129 40" version="1.1" xmlns="http://www.w3.org/2000/svg" xmlns:xlink="http://www.w3.org/1999/xlink">
    <title>Group Copy 3</title>
    <defs>
        <linearGradient x1="-42.3702313%" y1="-44.1023082%" x2="210.420484%" y2="139.316026%" id="linearGradient-1">
            <stop stop-color="#6C1FD2" offset="0%"></stop>
            <stop stop-color="#FA2355" offset="48.0890966%"></stop>
            <stop stop-color="#FFCA5F" offset="100%"></stop>
        </linearGradient>
        <linearGradient x1="42.9605995%" y1="-46.253067%" x2="62.225411%" y2="141.357392%" id="linearGradient-2">
            <stop stop-color="#6C1FD2" offset="0%"></stop>
            <stop stop-color="#FA2355" offset="48.0890966%"></stop>
            <stop stop-color="#FFCA5F" offset="100%"></stop>
        </linearGradient>
        <linearGradient x1="-42.3702313%" y1="-18.5889794%" x2="210.420484%" y2="115.10037%" id="linearGradient-3">
            <stop stop-color="#6C1FD2" offset="0%"></stop>
            <stop stop-color="#FA2355" offset="48.0890966%"></stop>
            <stop stop-color="#FFCA5F" offset="100%"></stop>
        </linearGradient>
        <linearGradient x1="-42.3702313%" y1="-44.1378072%" x2="224.421221%" y2="164.541307%" id="linearGradient-4">
            <stop stop-color="#6C1FD2" offset="0%"></stop>
            <stop stop-color="#FA2355" offset="48.0890966%"></stop>
            <stop stop-color="#FFCA5F" offset="100%"></stop>
        </linearGradient>
    </defs>
    <g id="Symbols" stroke="none" stroke-width="1" fill="none" fill-rule="evenodd">
        <g id="Group-Copy-3" transform="translate(1.000000, 1.000000)">
            <g id="Group-Copy" fill-rule="nonzero">
                <g id="alerti-brand">
                    <path d="M16.2939231,24.3774508 C13.2887996,24.3774508 10.8539316,21.9694858 10.8539316,18.9995947 C10.8539316,16.0297037 13.2887996,13.6217386 16.2939231,13.6217386 C19.2969952,13.6217386 21.7318632,16.0297037 21.7318632,18.9995947 C21.7318632,21.9694858 19.2969952,24.3774508 16.2939231,24.3774508 Z" id="Fill-1" fill="url(#linearGradient-1)"></path>
                    <path d="M32.9736919,35.4966901 C37.4270182,31.0905402 39.882399,25.2319026 39.882399,19 C39.882399,12.7680974 37.4270182,6.90945973 32.9716406,2.50330984 L35.50497,0 C40.6352183,5.07559256 43.4618805,11.8227632 43.4618805,19 C43.4618805,26.1772368 40.6372696,32.9244073 35.50497,38 L32.9736919,35.4966901 Z" id="Fill-6-Copy" stroke="url(#linearGradient-2)" stroke-width="0.9" fill="url(#linearGradient-2)" stroke-linecap="round" stroke-linejoin="round"></path>
                    <path d="M0,19.0002033 C0,14.6954841 1.6943563,10.6483989 4.77127455,7.60547772 L7.30460388,10.1108162 C4.90460766,12.4842947 3.58153283,15.6408183 3.58153283,19.0002033 C3.58153283,25.9319778 9.28408795,31.571525 16.2933077,31.571525 C23.3025275,31.571525 29.0050825,25.9319778 29.0050825,19.0002033 C29.0050825,15.6408183 27.6820077,12.4842947 25.2820115,10.1108162 L27.8132895,7.60547772 C30.8922591,10.6483989 32.5866154,14.6954841 32.5866154,19.0002033 C32.5866154,27.8855333 25.277909,35.1134854 16.2933077,35.1134854 C7.30870644,35.1134854 0,27.8855333 0,19.0002033 Z" id="Fill-3" stroke="url(#linearGradient-3)" stroke-width="0.9" fill="url(#linearGradient-3)" stroke-linejoin="round"></path>
                </g>
            </g>
            <path d="M60.4747002,28.6105033 C62.7783102,28.6105033 64.5663503,27.8185724 65.8388206,26.2347107 L65.8388206,26.2347107 L65.8388206,28.1548718 L70.0840447,28.1548718 L70.0840447,11.88232 L65.8388206,11.88232 L65.8388206,13.8024811 C64.5663503,12.2186194 62.7783102,11.4266885 60.4747002,11.4266885 C58.280786,11.4266885 56.3995045,12.2565887 54.8308558,13.916389 C53.2622071,15.5761892 52.4778828,17.6102582 52.4778828,20.0185959 C52.4778828,22.4269336 53.2622071,24.4610026 54.8308558,26.1208028 C56.3995045,27.7806031 58.280786,28.6105033 60.4747002,28.6105033 Z M61.2645094,24.6074555 C59.9481608,24.6074555 58.8621733,24.1843692 58.0065467,23.3381965 C57.1509201,22.470327 56.7231069,21.3637935 56.7231069,20.0185959 C56.7231069,18.6733983 57.1509201,17.5722889 58.0065467,16.7152679 C58.8621733,15.8582468 59.9481608,15.4297363 61.2645094,15.4297363 C62.5808579,15.4297363 63.6723303,15.8582468 64.5389264,16.7152679 C65.4055225,17.5722889 65.8388206,18.6733983 65.8388206,20.0185959 C65.8388206,21.3637935 65.4055225,22.4649029 64.5389264,23.3219239 C63.6723303,24.178945 62.5808579,24.6074555 61.2645094,24.6074555 Z M77.728784,28.1548718 L77.728784,4.39694612 L73.4835599,4.39694612 L73.4835599,28.1548718 L77.728784,28.1548718 Z M89.322569,28.6105033 C92.4818055,28.6105033 94.873172,27.4497279 96.4966686,25.1281772 L96.4966686,25.1281772 L93.0741623,23.175471 C92.2404749,24.2603077 91.0118829,24.8027261 89.3883864,24.8027261 C86.865385,24.8027261 85.3186754,23.7829796 84.7482577,21.7434864 L84.7482577,21.7434864 L97.1548428,21.7434864 C97.2645386,21.1359778 97.3193864,20.5610143 97.3193864,20.0185959 C97.3193864,17.5885615 96.5350621,15.5490683 94.9664134,13.9001164 C93.3977647,12.2511645 91.4067875,11.4266885 88.9934818,11.4266885 C86.4485413,11.4266885 84.3643227,12.2457403 82.7408262,13.8838439 C81.1173296,15.5219474 80.3055814,17.5668648 80.3055814,20.0185959 C80.3055814,22.4920238 81.1282992,24.5423653 82.7737349,26.1696205 C84.4191706,27.7968757 86.6021153,28.6105033 89.322569,28.6105033 Z M93.0741623,18.488976 L84.6824403,18.488976 C84.9237709,17.4475327 85.4174016,16.6393293 86.1633324,16.0643658 C86.9092633,15.4894023 87.8526464,15.2019206 88.9934818,15.2019206 C89.9588041,15.2019206 90.8199154,15.4731297 91.5768158,16.0155481 C92.3337163,16.5579665 92.8328318,17.3824425 93.0741623,18.488976 L93.0741623,18.488976 Z M104.07559,28.1548718 L104.07559,20.376592 C104.07559,18.8144271 104.585676,17.6970452 105.605846,17.0244464 C106.626016,16.3518475 107.783306,16.0914867 109.077715,16.2433639 L109.077715,16.2433639 L109.077715,11.5568689 C107.958819,11.5568689 106.944133,11.8172298 106.033659,12.3379514 C105.123185,12.8586731 104.470495,13.6397556 104.07559,14.6811989 L104.07559,14.6811989 L104.07559,11.88232 L99.8303664,11.88232 L99.8303664,28.1548718 L104.07559,28.1548718 Z M114.797294,27.3412442 C115.992978,28.2091137 118.049772,28.4803229 120.967678,28.1548718 L120.967678,28.1548718 L120.967678,24.3470947 C120.15593,24.3904882 119.475817,24.3959123 118.927338,24.3633672 C118.37886,24.3308221 117.962016,24.1843692 117.676807,23.9240083 C117.391598,23.6636475 117.248994,23.2514095 117.248994,22.6872944 L117.248994,22.6872944 L117.248994,15.9179128 L120.967678,15.9179128 L120.967678,11.88232 L117.248994,11.88232 L117.248994,7.32600545 L113.00377,8.5952645 L113.00377,11.88232 L110.140711,11.88232 L110.140711,15.9179128 L113.00377,15.9179128 L113.00377,22.6872944 C113.00377,24.9220582 113.601611,26.4733748 114.797294,27.3412442 Z M127.756791,28.1548718 L127.756791,11.88232 L123.511567,11.88232 L123.511567,28.1548718 L127.756791,28.1548718 Z" id="alerti" fill="#1E1E1E" fill-rule="nonzero"></path>
            <polygon id="Path-2" fill="url(#linearGradient-4)" points="123.491957 6.22903868 128 5.28792843 128 8.83918659 123.491957 9.74616182"></polygon>
        </g>
    </g>
</svg>